<svg xmlns="http://www.w3.org/2000/svg" xmlns:xlink="http://www.w3.org/1999/xlink" width="60" zoomAndPan="magnify" viewBox="0 0 45 44.999999" height="60" preserveAspectRatio="xMidYMid meet" version="1.0"><defs><clipPath id="ea27244b86"><path d="M 1.761719 7 L 21 7 L 21 37 L 1.761719 37 Z M 1.761719 7" clip-rule="nonzero"/></clipPath><clipPath id="f7faa8ce94"><path d="M 41 4 L 43.011719 4 L 43.011719 21 L 41 21 Z M 41 4" clip-rule="nonzero"/></clipPath><clipPath id="8ab1f07b06"><path d="M 22 1.761719 L 42 1.761719 L 42 10 L 22 10 Z M 22 1.761719" clip-rule="nonzero"/></clipPath></defs><path fill="#ffb000" d="M 39.535156 22.226562 C 39.347656 22.226562 39.199219 22.378906 39.199219 22.566406 L 39.199219 23.921875 L 38.769531 25.0625 L 40.300781 25.0625 L 39.875 23.921875 L 39.875 22.566406 C 39.875 22.378906 39.722656 22.226562 39.535156 22.226562 Z M 39.535156 22.226562" fill-opacity="1" fill-rule="nonzero"/><path fill="#ffb000" d="M 41.992188 35.367188 C 41.804688 35.367188 41.652344 35.519531 41.652344 35.707031 L 41.652344 40.40625 C 41.652344 40.757812 41.367188 41.039062 41.019531 41.039062 L 40.789062 41.039062 C 40.601562 41.039062 40.449219 41.191406 40.449219 41.378906 C 40.449219 41.566406 40.601562 41.71875 40.789062 41.71875 L 41.019531 41.71875 C 41.742188 41.71875 42.328125 41.128906 42.328125 40.40625 L 42.328125 35.707031 C 42.328125 35.519531 42.175781 35.367188 41.992188 35.367188 Z M 41.992188 35.367188" fill-opacity="1" fill-rule="nonzero"/><path fill="#ffb000" d="M 19.859375 31.191406 L 18.5 29.019531 C 18.382812 29.105469 18.265625 29.191406 18.140625 29.269531 C 18.015625 29.347656 17.886719 29.421875 17.757812 29.488281 L 19.113281 31.65625 Z M 19.859375 31.191406" fill-opacity="1" fill-rule="nonzero"/><g clip-path="url(#ea27244b86)"><path fill="#ffb000" d="M 14.964844 30.183594 C 13.488281 30.183594 12.035156 29.636719 10.917969 28.621094 L 4.464844 28.621094 C 4.277344 28.621094 4.125 28.472656 4.125 28.285156 C 4.125 28.097656 4.277344 27.945312 4.464844 27.945312 L 10.277344 27.945312 C 10.128906 27.761719 9.988281 27.566406 9.859375 27.359375 C 9.535156 26.839844 9.300781 26.289062 9.148438 25.722656 L 4.464844 25.722656 C 4.277344 25.722656 4.125 25.574219 4.125 25.386719 C 4.125 25.199219 4.277344 25.046875 4.464844 25.046875 L 9.011719 25.046875 C 8.902344 24.304688 8.933594 23.550781 9.101562 22.828125 L 4.464844 22.828125 C 4.277344 22.828125 4.125 22.675781 4.125 22.488281 C 4.125 22.300781 4.277344 22.148438 4.464844 22.148438 L 9.304688 22.148438 C 9.597656 21.328125 10.070312 20.566406 10.707031 19.929688 L 4.464844 19.929688 C 4.277344 19.929688 4.125 19.777344 4.125 19.589844 C 4.125 19.402344 4.277344 19.253906 4.464844 19.253906 L 11.519531 19.253906 C 11.601562 19.195312 11.683594 19.132812 11.769531 19.078125 C 14.582031 17.320312 18.296875 18.179688 20.050781 20.988281 C 20.136719 21.128906 20.214844 21.269531 20.289062 21.414062 L 20.289062 7.285156 L 5.558594 7.285156 L 5.726562 11.074219 C 5.730469 11.167969 5.695312 11.261719 5.628906 11.328125 C 5.566406 11.390625 5.480469 11.425781 5.390625 11.425781 C 5.382812 11.425781 5.378906 11.425781 5.371094 11.425781 L 1.761719 11.238281 L 1.761719 36.246094 L 20.289062 36.246094 L 20.289062 34.8125 L 17.136719 29.769531 C 16.433594 30.046875 15.695312 30.183594 14.964844 30.183594 Z M 12.59375 9.933594 L 19.007812 9.933594 C 19.195312 9.933594 19.34375 10.082031 19.34375 10.269531 C 19.34375 10.457031 19.195312 10.609375 19.007812 10.609375 L 12.59375 10.609375 C 12.40625 10.609375 12.257812 10.457031 12.257812 10.269531 C 12.257812 10.082031 12.40625 9.933594 12.59375 9.933594 Z M 4.464844 13.457031 L 17.992188 13.457031 C 18.179688 13.457031 18.332031 13.609375 18.332031 13.792969 C 18.332031 13.980469 18.179688 14.132812 17.992188 14.132812 L 4.464844 14.132812 C 4.277344 14.132812 4.125 13.980469 4.125 13.792969 C 4.125 13.609375 4.277344 13.457031 4.464844 13.457031 Z M 4.464844 16.355469 L 17.992188 16.355469 C 18.179688 16.355469 18.332031 16.503906 18.332031 16.691406 C 18.332031 16.878906 18.179688 17.03125 17.992188 17.03125 L 4.464844 17.03125 C 4.277344 17.03125 4.125 16.878906 4.125 16.691406 C 4.125 16.503906 4.277344 16.355469 4.464844 16.355469 Z M 4.464844 16.355469" fill-opacity="1" fill-rule="nonzero"/></g><path fill="#ffb000" d="M 20.214844 31.765625 L 19.472656 32.230469 L 21.664062 35.738281 C 21.738281 35.855469 21.847656 35.941406 21.972656 35.976562 C 22.089844 36.007812 22.207031 35.992188 22.300781 35.933594 C 22.507812 35.804688 22.554688 35.507812 22.410156 35.273438 Z M 20.214844 31.765625" fill-opacity="1" fill-rule="nonzero"/><path fill="#ffb000" d="M 4.902344 7.75 L 2.179688 10.582031 L 5.035156 10.730469 Z M 4.902344 7.75" fill-opacity="1" fill-rule="nonzero"/><path fill="#ffb000" d="M 14.953125 20.207031 C 12.769531 20.207031 10.988281 21.988281 10.988281 24.171875 C 10.988281 26.359375 12.769531 28.140625 14.953125 28.140625 C 17.140625 28.140625 18.921875 26.359375 18.921875 24.171875 C 18.921875 21.988281 17.140625 20.207031 14.953125 20.207031 Z M 16.621094 26.773438 C 16.488281 26.839844 16.339844 26.867188 16.195312 26.84375 C 15.984375 26.808594 15.804688 26.683594 15.703125 26.492188 C 15.53125 26.164062 15.652344 25.753906 15.984375 25.578125 C 16.519531 25.292969 16.765625 24.847656 16.761719 24.183594 C 16.757812 23.8125 17.058594 23.503906 17.433594 23.503906 C 17.46875 23.503906 17.507812 23.503906 17.546875 23.511719 C 17.871094 23.5625 18.113281 23.84375 18.113281 24.171875 C 18.121094 25.347656 17.605469 26.246094 16.621094 26.773438 Z M 16.621094 26.773438" fill-opacity="1" fill-rule="nonzero"/><path fill="#ffb000" d="M 20.152344 25.375 C 20.472656 23.984375 20.230469 22.554688 19.476562 21.347656 C 18.464844 19.730469 16.726562 18.84375 14.945312 18.84375 C 13.980469 18.84375 13.003906 19.101562 12.128906 19.652344 C 10.921875 20.40625 10.078125 21.585938 9.757812 22.972656 C 9.4375 24.363281 9.675781 25.792969 10.433594 27 C 11.988281 29.492188 15.285156 30.253906 17.78125 28.695312 C 18.988281 27.941406 19.832031 26.761719 20.152344 25.375 Z M 14.953125 28.816406 C 12.394531 28.816406 10.3125 26.734375 10.3125 24.171875 C 10.3125 21.613281 12.394531 19.53125 14.953125 19.53125 C 17.515625 19.53125 19.597656 21.613281 19.597656 24.171875 C 19.597656 26.734375 17.515625 28.816406 14.953125 28.816406 Z M 14.953125 28.816406" fill-opacity="1" fill-rule="nonzero"/><path fill="#ffb000" d="M 20.289062 26.933594 C 19.96875 27.554688 19.546875 28.113281 19.03125 28.589844 L 20.289062 30.605469 Z M 20.289062 26.933594" fill-opacity="1" fill-rule="nonzero"/><path fill="#ffb000" d="M 34.320312 24.023438 L 26.019531 24.023438 C 25.328125 24.023438 24.765625 24.585938 24.765625 25.277344 L 24.765625 41.5 C 24.765625 42.191406 25.328125 42.753906 26.019531 42.753906 L 34.320312 42.753906 C 35.011719 42.753906 35.574219 42.191406 35.574219 41.5 L 35.574219 25.277344 C 35.574219 24.585938 35.011719 24.023438 34.320312 24.023438 Z M 27.015625 41.503906 C 26.519531 41.503906 26.117188 41.097656 26.117188 40.601562 C 26.117188 40.105469 26.519531 39.703125 27.015625 39.703125 C 27.511719 39.703125 27.914062 40.105469 27.914062 40.601562 C 27.914062 41.097656 27.511719 41.503906 27.015625 41.503906 Z M 27.015625 38.378906 C 26.519531 38.378906 26.117188 37.976562 26.117188 37.480469 C 26.117188 36.984375 26.519531 36.582031 27.015625 36.582031 C 27.511719 36.582031 27.914062 36.984375 27.914062 37.480469 C 27.914062 37.976562 27.511719 38.378906 27.015625 38.378906 Z M 27.015625 35.257812 C 26.519531 35.257812 26.117188 34.855469 26.117188 34.359375 C 26.117188 33.863281 26.519531 33.460938 27.015625 33.460938 C 27.511719 33.460938 27.914062 33.863281 27.914062 34.359375 C 27.914062 34.855469 27.511719 35.257812 27.015625 35.257812 Z M 27.015625 32.136719 C 26.519531 32.136719 26.117188 31.734375 26.117188 31.238281 C 26.117188 30.742188 26.519531 30.339844 27.015625 30.339844 C 27.511719 30.339844 27.914062 30.742188 27.914062 31.238281 C 27.914062 31.734375 27.511719 32.136719 27.015625 32.136719 Z M 30.167969 41.503906 C 29.671875 41.503906 29.269531 41.097656 29.269531 40.601562 C 29.269531 40.105469 29.671875 39.703125 30.167969 39.703125 C 30.664062 39.703125 31.070312 40.105469 31.070312 40.601562 C 31.070312 41.097656 30.664062 41.503906 30.167969 41.503906 Z M 30.167969 38.378906 C 29.671875 38.378906 29.269531 37.976562 29.269531 37.480469 C 29.269531 36.984375 29.671875 36.582031 30.167969 36.582031 C 30.664062 36.582031 31.070312 36.984375 31.070312 37.480469 C 31.070312 37.976562 30.664062 38.378906 30.167969 38.378906 Z M 30.167969 35.257812 C 29.671875 35.257812 29.269531 34.855469 29.269531 34.359375 C 29.269531 33.863281 29.671875 33.460938 30.167969 33.460938 C 30.664062 33.460938 31.070312 33.863281 31.070312 34.359375 C 31.070312 34.855469 30.664062 35.257812 30.167969 35.257812 Z M 30.167969 32.136719 C 29.671875 32.136719 29.269531 31.734375 29.269531 31.238281 C 29.269531 30.742188 29.671875 30.339844 30.167969 30.339844 C 30.664062 30.339844 31.070312 30.742188 31.070312 31.238281 C 31.070312 31.734375 30.664062 32.136719 30.167969 32.136719 Z M 33.320312 41.503906 C 32.824219 41.503906 32.421875 41.097656 32.421875 40.601562 C 32.421875 40.105469 32.824219 39.703125 33.320312 39.703125 C 33.820312 39.703125 34.222656 40.105469 34.222656 40.601562 C 34.222656 41.097656 33.820312 41.503906 33.320312 41.503906 Z M 33.320312 38.378906 C 32.824219 38.378906 32.421875 37.976562 32.421875 37.480469 C 32.421875 36.984375 32.824219 36.582031 33.320312 36.582031 C 33.820312 36.582031 34.222656 36.984375 34.222656 37.480469 C 34.222656 37.976562 33.820312 38.378906 33.320312 38.378906 Z M 33.320312 35.257812 C 32.824219 35.257812 32.421875 34.855469 32.421875 34.359375 C 32.421875 33.863281 32.824219 33.460938 33.320312 33.460938 C 33.820312 33.460938 34.222656 33.863281 34.222656 34.359375 C 34.222656 34.855469 33.820312 35.257812 33.320312 35.257812 Z M 33.320312 32.136719 C 32.824219 32.136719 32.421875 31.734375 32.421875 31.238281 C 32.421875 30.742188 32.824219 30.339844 33.320312 30.339844 C 33.820312 30.339844 34.222656 30.742188 34.222656 31.238281 C 34.222656 31.734375 33.820312 32.136719 33.320312 32.136719 Z M 34.222656 28.28125 L 26.117188 28.28125 L 26.117188 25.773438 L 34.222656 25.773438 Z M 34.222656 28.28125" fill-opacity="1" fill-rule="nonzero"/><path fill="#ffb000" d="M 38.621094 25.738281 L 40.449219 25.738281 L 40.449219 26.410156 L 38.621094 26.410156 Z M 38.621094 25.738281" fill-opacity="1" fill-rule="nonzero"/><path fill="#ffb000" d="M 39.160156 42.613281 C 39.160156 42.820312 39.328125 42.988281 39.535156 42.988281 C 39.742188 42.988281 39.910156 42.820312 39.910156 42.613281 L 39.910156 41.714844 L 39.160156 41.714844 Z M 39.160156 42.613281" fill-opacity="1" fill-rule="nonzero"/><path fill="#ffb000" d="M 38.621094 40.453125 L 40.449219 40.453125 L 40.449219 41.039062 L 38.621094 41.039062 Z M 38.621094 40.453125" fill-opacity="1" fill-rule="nonzero"/><path fill="#ffb000" d="M 38.621094 27.085938 L 40.449219 27.085938 L 40.449219 32.492188 L 38.621094 32.492188 Z M 38.621094 27.085938" fill-opacity="1" fill-rule="nonzero"/><path fill="#ffb000" d="M 38.621094 33.171875 L 40.449219 33.171875 L 40.449219 39.777344 L 38.621094 39.777344 Z M 38.621094 33.171875" fill-opacity="1" fill-rule="nonzero"/><path fill="#ffb000" d="M 25.441406 12.59375 L 27.0625 12.59375 L 27.0625 20.550781 L 25.441406 20.550781 Z M 25.441406 12.59375" fill-opacity="1" fill-rule="nonzero"/><path fill="#ffb000" d="M 29.429688 9.316406 L 31.050781 9.316406 L 31.050781 20.550781 L 29.429688 20.550781 Z M 29.429688 9.316406" fill-opacity="1" fill-rule="nonzero"/><path fill="#ffb000" d="M 33.414062 14.679688 L 35.039062 14.679688 L 35.039062 20.550781 L 33.414062 20.550781 Z M 33.414062 14.679688" fill-opacity="1" fill-rule="nonzero"/><path fill="#ffb000" d="M 37.402344 6.800781 L 39.023438 6.800781 L 39.023438 20.550781 L 37.402344 20.550781 Z M 37.402344 6.800781" fill-opacity="1" fill-rule="nonzero"/><g clip-path="url(#f7faa8ce94)"><path fill="#ffb000" d="M 41.390625 4.722656 L 43.011719 4.722656 L 43.011719 20.550781 L 41.390625 20.550781 Z M 41.390625 4.722656" fill-opacity="1" fill-rule="nonzero"/></g><g clip-path="url(#8ab1f07b06)"><path fill="#ffb000" d="M 31.9375 4.921875 C 32.113281 4.976562 32.257812 5.097656 32.339844 5.261719 C 32.484375 5.550781 32.71875 5.753906 33.015625 5.851562 C 33.476562 6.003906 34.074219 5.894531 34.789062 5.53125 L 39.933594 2.855469 L 40.148438 3.234375 L 41.125 1.78125 L 39.371094 1.847656 L 39.605469 2.265625 L 34.480469 4.929688 C 33.796875 5.277344 33.421875 5.273438 33.226562 5.210938 C 33.101562 5.167969 33.007812 5.085938 32.941406 4.957031 C 32.777344 4.625 32.488281 4.382812 32.136719 4.277344 C 31.78125 4.167969 31.410156 4.207031 31.085938 4.390625 L 22.890625 8.992188 C 22.730469 9.082031 22.671875 9.289062 22.761719 9.449219 C 22.824219 9.5625 22.941406 9.625 23.058594 9.625 C 23.113281 9.625 23.171875 9.609375 23.222656 9.578125 L 31.417969 4.980469 C 31.578125 4.890625 31.761719 4.867188 31.9375 4.921875 Z M 31.9375 4.921875" fill-opacity="1" fill-rule="nonzero"/></g></svg>