<svg xmlns="http://www.w3.org/2000/svg" xmlns:xlink="http://www.w3.org/1999/xlink" width="60" zoomAndPan="magnify" viewBox="0 0 45 44.999999" height="60" preserveAspectRatio="xMidYMid meet" version="1.0"><defs><clipPath id="efd44ca6ae"><path d="M 2.25 4 L 33 4 L 33 42.75 L 2.25 42.75 Z M 2.25 4" clip-rule="nonzero"/></clipPath><clipPath id="2bd188522a"><path d="M 18 2.25 L 42.75 2.25 L 42.75 33.546875 L 18 33.546875 Z M 18 2.25" clip-rule="nonzero"/></clipPath></defs><g clip-path="url(#efd44ca6ae)"><path fill="#ffb000" d="M 30.601562 25.007812 C 29.484375 25.007812 28.578125 25.917969 28.578125 27.035156 L 28.578125 38.703125 L 6.296875 38.703125 L 6.296875 8.328125 L 14.398438 8.328125 C 15.515625 8.328125 16.421875 7.417969 16.421875 6.296875 C 16.421875 5.179688 15.515625 4.273438 14.398438 4.273438 L 6.296875 4.273438 C 4.0625 4.273438 2.25 6.085938 2.25 8.328125 L 2.25 38.703125 C 2.25 40.9375 4.0625 42.75 6.296875 42.75 L 28.578125 42.75 C 30.8125 42.75 32.625 40.9375 32.625 38.703125 L 32.625 27.035156 C 32.625 25.917969 31.71875 25.007812 30.601562 25.007812" fill-opacity="1" fill-rule="nonzero"/></g><g clip-path="url(#2bd188522a)"><path fill="#ffb000" d="M 22.5 12.375 C 22.5 9.019531 25.222656 6.296875 28.578125 6.296875 C 31.929688 6.296875 34.648438 9.019531 34.648438 12.375 C 34.648438 15.730469 31.929688 18.453125 28.578125 18.453125 C 25.222656 18.453125 22.5 15.730469 22.5 12.375 Z M 42.425781 29.910156 L 35.683594 19.5625 C 39.652344 15.625 39.679688 9.214844 35.742188 5.246094 C 31.800781 1.277344 25.394531 1.246094 21.421875 5.1875 C 17.453125 9.125 17.425781 15.535156 21.363281 19.503906 C 23.269531 21.429688 25.867188 22.507812 28.578125 22.5 C 29.851562 22.5 31.117188 22.25 32.300781 21.769531 L 39.023438 32.140625 C 39.398438 32.710938 40.039062 33.054688 40.726562 33.050781 C 41.113281 33.050781 41.492188 32.9375 41.820312 32.726562 C 42.761719 32.125 43.039062 30.875 42.4375 29.933594 C 42.433594 29.925781 42.429688 29.917969 42.425781 29.910156" fill-opacity="1" fill-rule="nonzero"/></g><path fill="#ffb000" d="M 22.5 30.601562 L 12.375 30.601562 C 11.257812 30.601562 10.351562 31.507812 10.351562 32.625 C 10.351562 33.742188 11.257812 34.648438 12.375 34.648438 L 22.5 34.648438 C 23.617188 34.648438 24.523438 33.742188 24.523438 32.625 C 24.523438 31.507812 23.617188 30.601562 22.5 30.601562" fill-opacity="1" fill-rule="nonzero"/><path fill="#ffb000" d="M 22.5 22.5 L 12.375 22.5 C 11.257812 22.5 10.351562 23.40625 10.351562 24.523438 C 10.351562 25.640625 11.257812 26.550781 12.375 26.550781 L 22.5 26.550781 C 23.617188 26.550781 24.523438 25.640625 24.523438 24.523438 C 24.523438 23.40625 23.617188 22.5 22.5 22.5" fill-opacity="1" fill-rule="nonzero"/></svg>