<svg xmlns="http://www.w3.org/2000/svg" xmlns:xlink="http://www.w3.org/1999/xlink" width="60" zoomAndPan="magnify" viewBox="0 0 45 44.999999" height="60" preserveAspectRatio="xMidYMid meet" version="1.0"><defs><clipPath id="f6c060c75f"><path d="M 26 35 L 32 35 L 32 41.261719 L 26 41.261719 Z M 26 35" clip-rule="nonzero"/></clipPath><clipPath id="e0c6a6a93c"><path d="M 1.507812 3.761719 L 43.507812 3.761719 L 43.507812 32 L 1.507812 32 Z M 1.507812 3.761719" clip-rule="nonzero"/></clipPath><clipPath id="c208a7493b"><path d="M 35 35 L 42 35 L 42 41.261719 L 35 41.261719 Z M 35 35" clip-rule="nonzero"/></clipPath></defs><path fill="#ffb000" d="M 40.015625 30.617188 C 40.015625 27.226562 37.253906 24.464844 33.863281 24.464844 C 30.472656 24.464844 27.710938 27.226562 27.710938 30.617188 C 27.710938 34.007812 30.472656 36.769531 33.863281 36.769531 C 37.253906 36.769531 40.015625 34.007812 40.015625 30.617188 Z M 33.863281 35.894531 C 30.953125 35.894531 28.585938 33.527344 28.585938 30.617188 C 28.585938 27.707031 30.953125 25.339844 33.863281 25.339844 C 36.773438 25.339844 39.140625 27.707031 39.140625 30.617188 C 39.140625 33.527344 36.773438 35.894531 33.863281 35.894531 Z M 33.863281 35.894531" fill-opacity="1" fill-rule="nonzero"/><path fill="#ffb000" d="M 33.863281 26.03125 C 31.332031 26.03125 29.273438 28.085938 29.273438 30.617188 C 29.273438 33.148438 31.332031 35.207031 33.863281 35.207031 C 36.390625 35.207031 38.449219 33.148438 38.449219 30.617188 C 38.449219 28.085938 36.390625 26.03125 33.863281 26.03125 Z M 36.265625 33.105469 L 33.863281 31.855469 L 31.460938 33.105469 L 32.316406 30.996094 L 30.773438 29.3125 L 32.964844 29.3125 L 33.863281 27.550781 L 34.761719 29.3125 L 36.953125 29.3125 L 35.410156 30.996094 Z M 36.265625 33.105469" fill-opacity="1" fill-rule="nonzero"/><g clip-path="url(#f6c060c75f)"><path fill="#ffb000" d="M 28.792969 35.191406 C 27.75 36.699219 26.894531 38.378906 26.246094 40.207031 C 26.984375 39.835938 28.074219 39.40625 28.84375 39.597656 C 29.546875 39.769531 30.148438 40.542969 30.554688 41.21875 C 30.777344 39.792969 31.253906 38.445312 31.964844 37.183594 C 30.726562 36.828125 29.636719 36.125 28.792969 35.191406 Z M 28.792969 35.191406" fill-opacity="1" fill-rule="nonzero"/></g><path fill="#ffb000" d="M 33.863281 23.777344 C 37.191406 23.777344 39.96875 26.167969 40.574219 29.320312 L 41.09375 29.320312 L 41.09375 6.226562 L 3.925781 6.226562 L 3.925781 29.320312 L 27.148438 29.320312 C 27.757812 26.167969 30.535156 23.777344 33.863281 23.777344 Z M 11.730469 8.105469 L 33.117188 8.105469 L 33.117188 11.222656 L 11.730469 11.222656 Z M 8.484375 15.226562 L 37.304688 15.226562 C 37.496094 15.226562 37.648438 15.382812 37.648438 15.570312 C 37.648438 15.761719 37.496094 15.917969 37.304688 15.917969 L 8.484375 15.917969 C 8.292969 15.917969 8.140625 15.761719 8.140625 15.570312 C 8.140625 15.382812 8.292969 15.226562 8.484375 15.226562 Z M 18.855469 19.011719 C 18.855469 19.203125 18.703125 19.355469 18.511719 19.355469 L 11.015625 19.355469 C 10.824219 19.355469 10.671875 19.203125 10.671875 19.011719 C 10.671875 18.820312 10.824219 18.667969 11.015625 18.667969 L 18.511719 18.667969 C 18.703125 18.667969 18.855469 18.820312 18.855469 19.011719 Z M 21.226562 25.253906 C 21.160156 25.429688 20.960938 25.519531 20.78125 25.449219 C 20.046875 25.167969 18.996094 25.222656 17.820312 25.609375 C 17.582031 25.6875 17.324219 25.625 17.148438 25.449219 C 16.972656 25.277344 16.910156 25.027344 16.984375 24.792969 C 17.066406 24.519531 17.113281 24.203125 16.976562 24.128906 C 16.816406 24.09375 15.953125 24.351562 13.890625 25.574219 C 13.652344 25.71875 13.359375 25.683594 13.160156 25.492188 C 12.960938 25.300781 12.914062 25.011719 13.042969 24.769531 C 13.609375 23.707031 13.476562 23.449219 13.476562 23.449219 C 12.644531 23.183594 10.152344 25.390625 8.644531 27.042969 C 8.578125 27.117188 8.484375 27.15625 8.390625 27.15625 C 8.308594 27.15625 8.226562 27.125 8.160156 27.066406 C 8.019531 26.9375 8.007812 26.71875 8.136719 26.578125 C 8.792969 25.859375 12.136719 22.296875 13.679688 22.789062 C 13.886719 22.855469 14.039062 22.996094 14.117188 23.191406 C 14.210938 23.425781 14.273438 23.84375 13.78125 24.839844 C 16.652344 23.164062 17.09375 23.410156 17.3125 23.527344 C 17.558594 23.664062 17.925781 24.03125 17.652344 24.953125 C 18.945312 24.519531 20.152344 24.46875 21.03125 24.808594 C 21.207031 24.875 21.296875 25.078125 21.226562 25.253906 Z M 23.75 19.355469 C 23.5625 19.355469 23.40625 19.203125 23.40625 19.011719 C 23.40625 18.820312 23.5625 18.667969 23.75 18.667969 L 35.617188 18.667969 C 35.808594 18.667969 35.960938 18.820312 35.960938 19.011719 C 35.960938 19.203125 35.808594 19.355469 35.617188 19.355469 Z M 23.75 19.355469" fill-opacity="1" fill-rule="nonzero"/><g clip-path="url(#e0c6a6a93c)"><path fill="#ffb000" d="M 41.832031 3.816406 L 3.183594 3.816406 C 2.261719 3.816406 1.507812 4.566406 1.507812 5.492188 L 1.507812 30.054688 C 1.507812 30.976562 2.261719 31.730469 3.183594 31.730469 L 27.121094 31.730469 C 27.0625 31.367188 27.023438 30.996094 27.023438 30.617188 C 27.023438 30.410156 27.035156 30.210938 27.054688 30.007812 L 3.582031 30.007812 C 3.390625 30.007812 3.238281 29.855469 3.238281 29.664062 L 3.238281 5.882812 C 3.238281 5.691406 3.390625 5.539062 3.582031 5.539062 L 41.4375 5.539062 C 41.625 5.539062 41.78125 5.691406 41.78125 5.882812 L 41.78125 29.664062 C 41.78125 29.855469 41.625 30.007812 41.4375 30.007812 L 40.671875 30.007812 C 40.691406 30.210938 40.703125 30.410156 40.703125 30.617188 C 40.703125 30.996094 40.664062 31.367188 40.605469 31.730469 L 41.832031 31.730469 C 42.757812 31.730469 43.507812 30.976562 43.507812 30.054688 L 43.507812 5.492188 C 43.507812 4.566406 42.757812 3.816406 41.832031 3.816406 Z M 41.832031 3.816406" fill-opacity="1" fill-rule="nonzero"/></g><g clip-path="url(#c208a7493b)"><path fill="#ffb000" d="M 35.757812 37.183594 C 36.472656 38.441406 36.949219 39.792969 37.171875 41.21875 C 37.578125 40.542969 38.179688 39.769531 38.882812 39.597656 C 39.652344 39.40625 40.742188 39.835938 41.480469 40.207031 C 40.832031 38.378906 39.976562 36.699219 38.933594 35.191406 C 38.089844 36.125 36.996094 36.828125 35.757812 37.183594 Z M 35.757812 37.183594" fill-opacity="1" fill-rule="nonzero"/></g></svg>