<svg xmlns="http://www.w3.org/2000/svg" xmlns:xlink="http://www.w3.org/1999/xlink" width="60" zoomAndPan="magnify" viewBox="0 0 45 44.999999" height="60" preserveAspectRatio="xMidYMid meet" version="1.0"><defs><clipPath id="be854effbc"><path d="M 26 32 L 38 32 L 38 43.964844 L 26 43.964844 Z M 26 32" clip-rule="nonzero"/></clipPath><clipPath id="b002736711"><path d="M 6.867188 1.214844 L 38.367188 1.214844 L 38.367188 43.964844 L 6.867188 43.964844 Z M 6.867188 1.214844" clip-rule="nonzero"/></clipPath></defs><g clip-path="url(#be854effbc)"><path fill="#ffb000" d="M 26.902344 33.988281 L 26.902344 43.128906 L 37.5 32.566406 L 28.332031 32.566406 C 28.140625 32.566406 27.960938 32.601562 27.785156 32.675781 C 27.609375 32.746094 27.457031 32.847656 27.320312 32.984375 C 27.1875 33.117188 27.082031 33.269531 27.011719 33.445312 C 26.9375 33.621094 26.902344 33.800781 26.902344 33.988281 Z M 26.902344 33.988281" fill-opacity="1" fill-rule="nonzero"/></g><g clip-path="url(#b002736711)"><path fill="#ffb000" d="M 24.042969 33.988281 C 24.042969 33.710938 24.070312 33.429688 24.125 33.15625 C 24.183594 32.882812 24.261719 32.613281 24.371094 32.355469 C 24.480469 32.097656 24.609375 31.847656 24.769531 31.617188 C 24.925781 31.382812 25.101562 31.167969 25.300781 30.96875 C 25.5 30.769531 25.714844 30.59375 25.949219 30.4375 C 26.183594 30.28125 26.429688 30.148438 26.691406 30.042969 C 26.953125 29.933594 27.21875 29.851562 27.496094 29.796875 C 27.769531 29.742188 28.050781 29.714844 28.332031 29.714844 L 38.335938 29.714844 L 38.335938 5.492188 C 38.335938 5.210938 38.308594 4.933594 38.253906 4.65625 C 38.199219 4.382812 38.117188 4.113281 38.011719 3.855469 C 37.902344 3.597656 37.769531 3.351562 37.613281 3.117188 C 37.457031 2.882812 37.277344 2.667969 37.082031 2.46875 C 36.882812 2.269531 36.664062 2.09375 36.429688 1.9375 C 36.195312 1.78125 35.949219 1.648438 35.691406 1.542969 C 35.429688 1.433594 35.160156 1.351562 34.886719 1.296875 C 34.609375 1.242188 34.332031 1.214844 34.050781 1.214844 L 11.179688 1.214844 C 10.898438 1.214844 10.617188 1.242188 10.34375 1.296875 C 10.066406 1.351562 9.796875 1.433594 9.539062 1.542969 C 9.277344 1.648438 9.03125 1.78125 8.796875 1.9375 C 8.5625 2.09375 8.347656 2.269531 8.148438 2.46875 C 7.949219 2.667969 7.773438 2.882812 7.613281 3.117188 C 7.457031 3.351562 7.328125 3.597656 7.21875 3.855469 C 7.109375 4.113281 7.027344 4.382812 6.972656 4.65625 C 6.917969 4.933594 6.890625 5.210938 6.890625 5.492188 L 6.890625 39.691406 C 6.890625 39.972656 6.917969 40.25 6.972656 40.523438 C 7.027344 40.800781 7.109375 41.066406 7.21875 41.324219 C 7.328125 41.585938 7.457031 41.832031 7.613281 42.0625 C 7.773438 42.296875 7.949219 42.511719 8.148438 42.710938 C 8.347656 42.910156 8.5625 43.085938 8.796875 43.242188 C 9.03125 43.398438 9.277344 43.53125 9.539062 43.636719 C 9.796875 43.746094 10.066406 43.828125 10.34375 43.882812 C 10.617188 43.9375 10.898438 43.964844 11.179688 43.964844 L 24.042969 43.964844 Z M 31.191406 20.496094 L 14.039062 20.496094 C 13.851562 20.488281 13.671875 20.449219 13.5 20.375 C 13.328125 20.300781 13.179688 20.199219 13.050781 20.066406 C 12.917969 19.933594 12.816406 19.78125 12.746094 19.605469 C 12.675781 19.433594 12.640625 19.253906 12.640625 19.070312 C 12.640625 18.882812 12.675781 18.703125 12.746094 18.53125 C 12.816406 18.359375 12.917969 18.207031 13.050781 18.074219 C 13.179688 17.941406 13.328125 17.835938 13.5 17.761719 C 13.671875 17.6875 13.851562 17.648438 14.039062 17.644531 L 31.191406 17.644531 C 31.382812 17.640625 31.570312 17.671875 31.746094 17.742188 C 31.925781 17.8125 32.085938 17.914062 32.222656 18.050781 C 32.359375 18.183594 32.46875 18.339844 32.542969 18.515625 C 32.617188 18.691406 32.65625 18.878906 32.65625 19.070312 C 32.65625 19.261719 32.617188 19.445312 32.542969 19.625 C 32.46875 19.800781 32.359375 19.957031 32.222656 20.089844 C 32.085938 20.222656 31.925781 20.324219 31.746094 20.394531 C 31.570312 20.464844 31.382812 20.5 31.191406 20.496094 Z M 26.394531 9.230469 C 26.273438 9.082031 26.183594 8.917969 26.128906 8.734375 C 26.070312 8.554688 26.054688 8.367188 26.074219 8.175781 C 26.09375 7.988281 26.148438 7.808594 26.242188 7.640625 C 26.332031 7.472656 26.453125 7.328125 26.601562 7.207031 C 26.753906 7.089844 26.917969 7.003906 27.105469 6.949219 C 27.289062 6.898438 27.476562 6.882812 27.664062 6.90625 C 27.855469 6.929688 28.035156 6.988281 28.203125 7.082031 C 28.367188 7.175781 28.511719 7.296875 28.628906 7.449219 L 29.53125 8.574219 L 30.433594 7.449219 C 30.550781 7.296875 30.691406 7.175781 30.859375 7.082031 C 31.023438 6.988281 31.203125 6.929688 31.394531 6.90625 C 31.585938 6.882812 31.773438 6.898438 31.957031 6.949219 C 32.140625 7.003906 32.308594 7.089844 32.457031 7.207031 C 32.605469 7.328125 32.726562 7.472656 32.820312 7.640625 C 32.910156 7.808594 32.964844 7.988281 32.984375 8.175781 C 33.003906 8.367188 32.988281 8.554688 32.929688 8.734375 C 32.875 8.917969 32.785156 9.082031 32.664062 9.230469 L 31.359375 10.855469 L 32.664062 12.480469 C 32.777344 12.625 32.859375 12.789062 32.910156 12.972656 C 32.960938 13.152344 32.972656 13.335938 32.953125 13.519531 C 32.929688 13.707031 32.875 13.878906 32.78125 14.042969 C 32.691406 14.207031 32.574219 14.347656 32.425781 14.464844 C 32.28125 14.578125 32.117188 14.664062 31.9375 14.71875 C 31.757812 14.769531 31.574219 14.789062 31.386719 14.769531 C 31.199219 14.75 31.023438 14.695312 30.859375 14.609375 C 30.695312 14.519531 30.550781 14.402344 30.433594 14.261719 L 29.53125 13.136719 L 28.628906 14.261719 C 28.511719 14.410156 28.367188 14.535156 28.203125 14.628906 C 28.035156 14.722656 27.855469 14.78125 27.664062 14.804688 C 27.476562 14.828125 27.289062 14.8125 27.105469 14.757812 C 26.917969 14.707031 26.753906 14.621094 26.601562 14.5 C 26.453125 14.382812 26.332031 14.238281 26.242188 14.070312 C 26.148438 13.902344 26.09375 13.722656 26.074219 13.535156 C 26.054688 13.34375 26.070312 13.15625 26.128906 12.972656 C 26.183594 12.792969 26.273438 12.625 26.394531 12.480469 L 27.699219 10.855469 Z M 21.78125 6.914062 L 22.003906 6.914062 C 22.300781 6.914062 22.570312 7 22.8125 7.164062 C 23.054688 7.332031 23.230469 7.550781 23.335938 7.824219 L 25.300781 12.851562 C 25.363281 13.027344 25.390625 13.207031 25.386719 13.394531 C 25.378906 13.582031 25.335938 13.757812 25.257812 13.925781 C 25.179688 14.097656 25.074219 14.246094 24.9375 14.375 C 24.804688 14.5 24.648438 14.597656 24.472656 14.667969 C 24.300781 14.734375 24.121094 14.765625 23.933594 14.761719 C 23.746094 14.761719 23.566406 14.722656 23.394531 14.648438 C 23.222656 14.578125 23.074219 14.472656 22.941406 14.34375 C 22.808594 14.210938 22.707031 14.058594 22.636719 13.886719 L 21.929688 12.078125 L 21.277344 13.859375 C 21.171875 14.140625 21 14.367188 20.753906 14.535156 C 20.507812 14.707031 20.234375 14.792969 19.933594 14.792969 C 19.765625 14.796875 19.601562 14.769531 19.441406 14.710938 C 19.265625 14.644531 19.105469 14.550781 18.964844 14.421875 C 18.828125 14.292969 18.714844 14.144531 18.636719 13.972656 C 18.558594 13.800781 18.511719 13.621094 18.503906 13.433594 C 18.496094 13.246094 18.527344 13.0625 18.59375 12.882812 L 20.441406 7.855469 C 20.542969 7.574219 20.71875 7.347656 20.960938 7.175781 C 21.207031 7.003906 21.480469 6.914062 21.78125 6.914062 Z M 13.679688 6.914062 L 17.714844 6.914062 C 17.902344 6.921875 18.082031 6.960938 18.253906 7.035156 C 18.425781 7.109375 18.574219 7.210938 18.707031 7.34375 C 18.835938 7.476562 18.9375 7.628906 19.007812 7.804688 C 19.078125 7.976562 19.113281 8.15625 19.113281 8.339844 C 19.113281 8.527344 19.078125 8.707031 19.007812 8.878906 C 18.9375 9.050781 18.835938 9.203125 18.707031 9.335938 C 18.574219 9.46875 18.425781 9.574219 18.253906 9.648438 C 18.082031 9.722656 17.902344 9.761719 17.714844 9.765625 L 17.128906 9.765625 L 17.128906 13.371094 C 17.128906 13.558594 17.09375 13.742188 17.023438 13.914062 C 16.949219 14.089844 16.847656 14.242188 16.710938 14.378906 C 16.578125 14.511719 16.421875 14.613281 16.246094 14.6875 C 16.074219 14.757812 15.890625 14.796875 15.699219 14.796875 C 15.511719 14.796875 15.328125 14.757812 15.152344 14.6875 C 14.980469 14.613281 14.824219 14.511719 14.691406 14.378906 C 14.554688 14.242188 14.453125 14.089844 14.378906 13.914062 C 14.308594 13.742188 14.269531 13.558594 14.269531 13.371094 L 14.269531 9.765625 L 13.683594 9.765625 C 13.492188 9.769531 13.304688 9.738281 13.128906 9.667969 C 12.949219 9.597656 12.789062 9.496094 12.652344 9.359375 C 12.515625 9.226562 12.40625 9.070312 12.332031 8.894531 C 12.257812 8.71875 12.21875 8.53125 12.21875 8.339844 C 12.21875 8.148438 12.257812 7.964844 12.332031 7.789062 C 12.40625 7.609375 12.515625 7.453125 12.652344 7.320312 C 12.789062 7.1875 12.949219 7.085938 13.128906 7.015625 C 13.304688 6.945312 13.492188 6.910156 13.683594 6.914062 Z M 12.609375 26.195312 C 12.609375 26.007812 12.644531 25.824219 12.71875 25.648438 C 12.789062 25.476562 12.894531 25.320312 13.027344 25.1875 C 13.160156 25.054688 13.316406 24.949219 13.492188 24.878906 C 13.664062 24.804688 13.847656 24.769531 14.039062 24.769531 L 24.042969 24.769531 C 24.234375 24.765625 24.421875 24.796875 24.601562 24.867188 C 24.78125 24.9375 24.9375 25.039062 25.078125 25.175781 C 25.214844 25.308594 25.320312 25.464844 25.394531 25.640625 C 25.46875 25.816406 25.507812 26.003906 25.507812 26.195312 C 25.507812 26.386719 25.46875 26.570312 25.394531 26.746094 C 25.320312 26.925781 25.214844 27.082031 25.078125 27.214844 C 24.9375 27.347656 24.78125 27.449219 24.601562 27.519531 C 24.421875 27.589844 24.234375 27.625 24.042969 27.621094 L 14.039062 27.621094 C 13.847656 27.621094 13.664062 27.582031 13.492188 27.511719 C 13.316406 27.4375 13.160156 27.335938 13.027344 27.203125 C 12.894531 27.070312 12.789062 26.914062 12.71875 26.738281 C 12.644531 26.566406 12.609375 26.382812 12.609375 26.195312 Z M 12.609375 26.195312" fill-opacity="1" fill-rule="nonzero"/></g></svg>